<mxfile host="app.diagrams.net" modified="2020-08-19T01:29:28.917Z" agent="5.0 (Windows NT 10.0; Win64; x64) AppleWebKit/537.36 (KHTML, like Gecko) Chrome/84.0.4147.125 Safari/537.36" etag="iqHfTI2CrtroAYas56uq" version="13.6.0" type="github">
  <diagram id="PoSvFZ6n82ezW3HcSB_V" name="第 1 页">
    <mxGraphModel dx="1138" dy="610" grid="1" gridSize="10" guides="1" tooltips="1" connect="1" arrows="1" fold="1" page="1" pageScale="1" pageWidth="827" pageHeight="1169" math="0" shadow="0">
      <root>
        <mxCell id="0" />
        <mxCell id="1" parent="0" />
        <mxCell id="oatkVZRFoIWR3xVY8Go6-1" value="查找昨日生效的共享车辆套餐" style="rounded=0;whiteSpace=wrap;html=1;" vertex="1" parent="1">
          <mxGeometry x="60" y="50" width="120" height="60" as="geometry" />
        </mxCell>
        <mxCell id="oatkVZRFoIWR3xVY8Go6-2" value="从charging_record_detail表中统计昨日消耗额度" style="rounded=0;whiteSpace=wrap;html=1;" vertex="1" parent="1">
          <mxGeometry x="60" y="140" width="120" height="60" as="geometry" />
        </mxCell>
        <mxCell id="oatkVZRFoIWR3xVY8Go6-3" value="推送给套餐拥有者" style="rounded=0;whiteSpace=wrap;html=1;" vertex="1" parent="1">
          <mxGeometry x="60" y="250" width="120" height="60" as="geometry" />
        </mxCell>
        <mxCell id="oatkVZRFoIWR3xVY8Go6-4" value="套餐消费账单" style="text;html=1;align=center;verticalAlign=middle;resizable=0;points=[];autosize=1;" vertex="1" parent="1">
          <mxGeometry x="300" y="20" width="90" height="20" as="geometry" />
        </mxCell>
        <mxCell id="oatkVZRFoIWR3xVY8Go6-7" value="2020-08-14车辆电量包消费账单" style="text;html=1;align=center;verticalAlign=middle;resizable=0;points=[];autosize=1;" vertex="1" parent="1">
          <mxGeometry x="224" y="60" width="190" height="20" as="geometry" />
        </mxCell>
        <mxCell id="oatkVZRFoIWR3xVY8Go6-8" value="当日共5辆车进行即插即充，累计充电16次，累计充电量为45度（折合费用27.1元，其中充电费25元、充电服务费2.1元）" style="text;html=1;align=center;verticalAlign=middle;resizable=0;points=[];autosize=1;" vertex="1" parent="1">
          <mxGeometry x="224" y="80" width="650" height="20" as="geometry" />
        </mxCell>
        <mxCell id="oatkVZRFoIWR3xVY8Go6-9" value="2020-08-14车辆金额包消费账单" style="text;html=1;align=center;verticalAlign=middle;resizable=0;points=[];autosize=1;" vertex="1" parent="1">
          <mxGeometry x="224" y="130" width="190" height="20" as="geometry" />
        </mxCell>
        <mxCell id="oatkVZRFoIWR3xVY8Go6-10" value="当日共5辆车进行即插即充，累计充电16次，累计充电量为45度（折合费用27.1元，其中充电费25元、充电服务费2.1元）" style="text;html=1;align=center;verticalAlign=middle;resizable=0;points=[];autosize=1;" vertex="1" parent="1">
          <mxGeometry x="224" y="150" width="650" height="20" as="geometry" />
        </mxCell>
        <mxCell id="oatkVZRFoIWR3xVY8Go6-11" value="2020-08-14用户电量包消费账单" style="text;html=1;align=center;verticalAlign=middle;resizable=0;points=[];autosize=1;" vertex="1" parent="1">
          <mxGeometry x="224" y="200" width="190" height="20" as="geometry" />
        </mxCell>
        <mxCell id="oatkVZRFoIWR3xVY8Go6-12" value="本日共3名用户进行扫码充电，累计充电16次，累计充电量为45度，累计扣除套餐金额27.1元（其中充电费25元、充电服务费2.1元）" style="text;html=1;align=center;verticalAlign=middle;resizable=0;points=[];autosize=1;" vertex="1" parent="1">
          <mxGeometry x="194" y="220" width="710" height="20" as="geometry" />
        </mxCell>
        <mxCell id="oatkVZRFoIWR3xVY8Go6-13" value="2020-08-14车辆金额包消费账单" style="text;html=1;align=center;verticalAlign=middle;resizable=0;points=[];autosize=1;" vertex="1" parent="1">
          <mxGeometry x="224" y="260" width="190" height="20" as="geometry" />
        </mxCell>
        <mxCell id="oatkVZRFoIWR3xVY8Go6-14" value="本日共3名用户进行扫码充电，累计充电16次，累计充电量为45度，累计扣除套餐金额27.1元（其中充电费25元、充电服务费2.1元）" style="text;html=1;align=center;verticalAlign=middle;resizable=0;points=[];autosize=1;" vertex="1" parent="1">
          <mxGeometry x="194" y="280" width="710" height="20" as="geometry" />
        </mxCell>
      </root>
    </mxGraphModel>
  </diagram>
</mxfile>
